<svg id="Layer_1" data-name="Layer 1" xmlns="http://www.w3.org/2000/svg" viewBox="0 0 63.02 51.16"><defs><style>.cls-1{fill:#a8bd19;}.cls-2{fill:#96a816;}</style></defs><title>Artboard 1</title><path class="cls-1" d="M19.58,25.14S17.43,15.36,7,15.36H0S2,30.73,12.58,30.73C12.6,30.73,19.58,31.31,19.58,25.14Z"/><path class="cls-1" d="M29.76,20.35a8.74,8.74,0,0,1,.26-5.9C31.83,9.79,37.25,0,51,0H63S59.5,26.53,41.3,26.53C41.3,26.53,32.07,27.3,29.76,20.35Z"/><path class="cls-2" d="M44.05,13.55l-1.43-2C32.28,19.1,27.51,27.64,25.38,34.67a18.43,18.43,0,0,0-4.28-7.79A15.11,15.11,0,0,0,9.81,22.49V25a12.78,12.78,0,0,1,9.54,3.65C23.56,33,23.94,39.89,24,41.55a49.77,49.77,0,0,0,0,9.61l2.38-.45a49,49,0,0,1,0-8.73h.06v-.54C27.25,34.29,30.91,23.14,44.05,13.55Z"/></svg>