<svg version="1" xmlns="http://www.w3.org/2000/svg" width="1333.333" height="1333.333" viewBox="0 0 1000.000000 1000.000000"><path d="M776 95.1c-4.1.4-10.6 1-14.5 1.3-3.8.4-7.7.8-8.5 1.1-.8.2-4 .7-7 1-3 .3-6.2.8-7 1-.8.2-3 .7-4.8 1-7 1.2-17.3 3.5-26.3 6-5.2 1.4-10.3 2.8-11.3 3-1.1.3-6 1.9-11 3.6-47.5 16.3-89.2 42.4-124.7 78.1-19.6 19.6-37.8 43-53.7 68.8-8.4 13.8-23.1 43.2-28.6 57.5-1.5 3.8-3.3 8.3-4.1 10-1.7 3.8-6.2 20.7-7 26.1-1.5 11-2.2 34.4-1.1 36.3.2.3.7 2.8 1 5.6 2.1 18 9.9 38.1 21.1 54.5 3.7 5.5 5.4 8.8 4.9 9.6-3.4 4.7-22.4 33.5-23.8 35.9-1.7 3.1-3 5.2-5.7 9.5-.9 1.4-3 5-4.6 8-1.7 3-5.3 9.5-8 14.5-7.3 13.2-19.4 38.2-25.9 53.8-4.4 10.3-4.7 11.2-4.9 11.7 0 .3-1.9 5.2-4.2 11-2.2 5.8-6.2 17-8.8 24.9l-4.8 14.4-2.4-8.3c-2.8-9.8-9.1-27.1-10.4-28.5-.5-.5-.9-1.4-.9-2.1 0-1.5-8.9-20-13.2-27.4-1.7-3-3.9-6.9-4.7-8.5-11.2-20.8-38.7-53-56.9-66.5-2.3-1.7-3.2-3.2-3.2-5.3 0-15.4-19.9-57.7-39.2-83.1-7.1-9.4-25-27.8-32.3-33.3-2.7-2.1-5.2-4-5.5-4.4-.7-.7-13-9.1-15.5-10.5-12.1-6.6-19.2-10.1-26.4-13-8.5-3.5-25.1-8.5-32.6-10-2.2-.4-4.2-.8-4.5-.9-.3-.1-3-.5-6-.9-3-.5-6.2-1-7.2-1.1-7.1-1.4-26.6-1.8-79.8-1.9l-61.5-.1v2.5c-.1 1.4 1 7.7 2.3 14 1.3 6.3 2.5 12.6 2.8 14 5.3 27.3 22.2 75.1 36.1 101.7 31.3 60.2 70.5 95.2 120.8 107.7 13.7 3.4 21.8 4.1 45 4 17.6-.1 22.3-.6 36.6-3.8 4.4-1 15.2-4.6 16.3-5.4.6-.5 2.7-1.5 4.6-2.2 9.5-3.7 24.3-15.7 30.7-24.7l3-4.2 5.9 5.7c23.4 22.7 40.9 51.7 55.3 91.6 3.1 8.3 10.3 34.2 11.5 40.8.2 1.5 1.1 6.3 2 10.5.8 4.3 1.8 9.6 2.1 11.8.3 2.2.7 5.3 1 7 2.9 19.3 3.8 44.2 2.2 61-2.6 28.6-2.8 93.3-.2 119 .2 2.2.7 6.9 1 10.4.3 3.6.7 6.6.9 6.8.2.2 3.7-.3 7.7-1.1 4.1-.8 8.5-1.7 9.9-2 3.8-.7 14.3-2.8 16-3.1.8-.2 2.1-.4 2.8-.4 1.1-.1 1.2-1.5.8-6-2.7-27.9-2.8-103-.1-125.6.3-2.2.7-5.8 1-8 .2-2.2.7-7.1 1-10.8.4-3.7.8-7.8 1.1-9 .2-1.2.6-4 .9-6.1 2.3-17.5 11.7-58.5 18.4-80.1 5.8-18.5 12.9-37.6 24.2-64.5 6.9-16.2 23.3-47.5 36.3-69 9.2-15.2 22.6-35 23.7-35 .6 0 2.4.9 4 2 4.5 3.3 24.6 12.6 33.9 15.8 7.5 2.6 18.5 5.6 24.4 6.8 24.6 4.8 35.3 5.8 61.1 5.6 22.4-.1 38.5-1.1 46.9-2.8 1.2-.2 4.4-.7 7.1-1 2.8-.4 5.3-.8 5.6-1 .4-.2 2.4-.6 4.5-1 4.5-.7 18.1-4.1 19.3-4.8.4-.3 1.8-.7 3.2-1 9-1.7 35.8-13.3 50.9-21.9 24.9-14.2 41.7-27.3 64-49.6 17.5-17.6 17.9-18 29.8-33.4 21.1-27.2 35.9-51.2 53.8-87 3.5-7 6.4-12.9 6.4-13.1 0-.3 1.6-3.8 3.5-7.9 1.9-4.1 3.5-7.7 3.5-8 0-.3 1.3-3.4 2.9-6.9 11.1-24.2 33.9-94.5 38.6-118.8.2-1.2.7-3 1-4 .3-1 .7-2.7.9-3.7.2-1 1.5-7 2.9-13.3 2.9-13.1 6.4-31.5 7.2-37.8l.5-4.2-108.3.1c-59.5.1-111.6.6-115.7 1z"/></svg>